# xmcd
#
# Track frame offsets: 
#        150
#        43513
#        72028
#        98664
#        123344
#        146430
#
# Disc length: 2322 seconds
#
# Revision: 0
# Processed by: cddbd v1.5.2PL0 Copyright (c) Steve Scherf et al.
# Submitted via: ExactAudioCopy v0.99pb4
#
DISCID=48091006
DTITLE=Various Artist - Jazz For Japan [Disc 1]
DYEAR=2011
DGENRE=Jazz
TTITLE0=Nathan East, Billy Childs, Steve Gadd, Tom Scott and Everette Ha
TTITLE0=rp - Maiden Voyage
TTITLE1=Everette Harp, Clarence McDonald, Ndugu Chancler, David T. Wal
TTITLE1=ker and Del Atkins - Sugar
TTITLE2=Nathan East, Billy Childs, Steve Gadd, Tom Scott and Everette Ha
TTITLE2=rp - So What
TTITLE3=Christian McBride and Billy Childs - Sophisticated Lady
TTITLE4=Rickey Minor, The Tonight Show Band, Marcus Miller, Wayne Lins
TTITLE4=ey, Paul Jackson Jr., Teddy Campbell, David Delhomme, Kevin Ri
TTITLE4=card, Ray Monteiro, Miguel Gandelman, Garrett Smith and Randy El
TTITLE4=lis - Footprints
TTITLE5=George Duke, Tom Scott, Nathan East, Steve Gadd and Billy Childs
TTITLE5=Work Song
EXTD=
EXTT0=
EXTT1=
EXTT2=
EXTT3=
EXTT4=
EXTT5=
PLAYORDER=
